# xmcd CD database file generated by MAGIX_Freedb v0.9beta0
# 
# Track frame offsets:
#      150
#      17287
#      29800
#      43930
#      56853
#      78888
#      88950
#      105545
#      118640
#      134370
#      147600
#      161408
# 
# Disc length: 2363 seconds
# 
# Revision: 1 
# Processed by: cddbd v1.5.2PL0 Copyright (c) Steve Scherf et al.
# Submitted via: MAGIX_Freedb v0.9beta0
# 
DISCID=a609390c
DTITLE=Tom Astor - Hank Stone and The West Forest Contry Boys
DYEAR=1900
DGENRE=
TTITLE0=Tom Astor - Ich wollte auf nen echten Zug
TTITLE1=Truchstopp Mama
TTITLE2=Ich hab Hunger auf ein Weib
TTITLE3=Ein richtiger Mann ist immer unterwegs
TTITLE4=Ich hab noch zeit
TTITLE5=Ich bin ein Mann der Strasse
TTITLE6=Meine Antwort ist die grosse Autobahn
TTITLE7=Mein Auto kennt schon den Heimweg
TTITLE8=Mein Brummi
TTITLE9=Joe Einsam
TTITLE10=Mein Laster wartet schon
TTITLE11=Ich möcht so gern Dave Dudley Hoern
EXTD=
EXTT0=
EXTT1=
EXTT2=
EXTT3=
EXTT4=
EXTT5=
EXTT6=
EXTT7=
EXTT8=
EXTT9=
EXTT10=
EXTT11=
PLAYORDER=
